<?xml version="1.0" standalone="no"?>
<!DOCTYPE svg PUBLIC "-//W3C//DTD SVG 20010904//EN"
 "http://www.w3.org/TR/2001/REC-SVG-20010904/DTD/svg10.dtd">
<svg version="1.0" xmlns="http://www.w3.org/2000/svg"
 width="5000.000000pt" height="3334.000000pt" viewBox="0 0 5000.000000 3334.000000"
 preserveAspectRatio="xMidYMid meet">

<g transform="translate(0.000000,3334.000000) scale(0.100000,-0.100000)"
fill="#000000" stroke="none">
<path d="M0 16670 l0 -16670 25000 0 25000 0 0 16670 0 16670 -25000 0 -25000
0 0 -16670z m49978 5 l-3 -16645 -24975 0 -24975 0 -3 16645 -2 16645 24980 0
24980 0 -2 -16645z"/>
<path d="M17600 25659 c-489 -52 -903 -288 -1069 -608 -52 -100 -73 -178 -73
-265 0 -69 61 -288 331 -1180 l26 -89 236 334 c130 184 234 336 233 338 -2 2
-24 -4 -50 -13 -72 -24 -140 -21 -169 8 -39 39 -59 126 -60 256 0 138 14 172
86 208 39 19 51 21 75 12 64 -25 103 -83 148 -222 l33 -101 53 191 53 191 40
-35 c70 -63 232 -163 391 -240 86 -42 161 -74 166 -72 5 2 -24 46 -66 98 -96
121 -95 118 -43 86 175 -107 417 -200 555 -211 33 -3 79 -8 103 -11 55 -7 56
-10 -52 148 -107 157 -107 156 -69 129 47 -33 150 -77 210 -90 74 -15 187 -14
256 4 115 30 256 116 350 213 l39 41 -144 143 c-254 252 -498 432 -764 564
-293 146 -561 202 -825 173z"/>
<path d="M19094 23407 c-503 -268 -511 -273 -527 -312 -50 -119 -166 -183
-363 -200 -65 -5 -93 -14 -159 -47 -149 -77 -155 -82 -155 -136 0 -26 -11
-137 -25 -247 -14 -110 -25 -206 -25 -212 0 -27 51 -60 -649 411 l-444 299
-56 -23 c-712 -290 -1206 -1084 -1530 -2455 -97 -415 -198 -1012 -263 -1564
-25 -216 -23 -211 -108 -211 -147 0 -346 -133 -428 -287 -61 -117 -62 -123
-62 -752 0 -314 -2 -571 -3 -571 -2 0 -48 7 -103 15 -510 77 -890 -154 -1015
-615 -20 -72 -23 -110 -24 -250 0 -141 4 -178 23 -250 68 -253 213 -440 427
-548 48 -24 154 -62 173 -62 2 0 -23 20 -57 45 -149 113 -255 280 -307 485
-15 60 -19 109 -18 245 1 200 16 274 89 421 111 225 286 369 524 431 81 21
118 24 236 24 77 0 172 -6 212 -14 l72 -13 3 575 c4 561 4 578 25 641 28 82
82 172 136 228 42 43 137 112 154 112 10 0 -53 -584 -87 -815 -18 -119 -39
-217 -65 -310 -5 -16 17 -39 115 -119 66 -55 120 -102 120 -106 0 -4 -18 -46
-40 -94 -87 -187 -154 -436 -186 -681 -20 -158 -23 -545 -5 -715 56 -539 209
-1142 459 -1815 l49 -130 591 -3 592 -2 -46 -63 c-61 -82 -98 -157 -131 -264
-23 -77 -26 -105 -27 -228 0 -121 4 -153 26 -235 92 -334 326 -578 633 -661
106 -29 334 -32 439 -6 324 81 572 342 657 694 30 121 30 296 0 408 -26 99
-85 222 -140 295 l-41 55 468 3 469 2 6 98 c48 733 27 2037 -39 2439 -4 30 -2
34 44 57 l49 25 6 63 c22 220 107 1350 137 1823 l12 180 65 105 c63 100 649
1003 924 1424 72 109 129 199 127 200 -2 2 -230 152 -508 335 -278 183 -511
339 -518 345 -12 12 13 27 1163 694 204 118 371 216 373 217 4 3 -916 1877
-926 1887 -4 4 -237 -115 -518 -265z"/>
<path d="M35780 22875 c-52 -8 -128 -21 -168 -29 -96 -21 -130 -20 -259 5
-141 28 -324 23 -423 -11 -270 -92 -425 -278 -503 -605 -21 -86 -22 -113 -23
-620 0 -499 -1 -535 -21 -620 -32 -139 -85 -269 -219 -535 -190 -379 -218
-479 -219 -765 0 -113 5 -205 14 -247 l13 -67 120 -108 c158 -142 384 -384
495 -531 96 -126 193 -266 193 -279 0 -4 -118 -126 -261 -269 l-262 -262 68
-133 c81 -160 173 -384 211 -519 l29 -100 376 0 376 0 22 -122 c29 -164 49
-318 42 -322 -3 -2 -80 3 -171 10 -91 7 -193 15 -227 18 l-61 4 -6 -91 c-18
-264 -47 -702 -53 -773 l-6 -80 224 -33 c123 -17 238 -34 256 -38 32 -5 32 -6
26 -49 -3 -23 -15 -92 -27 -151 l-21 -108 -377 -3 c-305 -2 -378 -5 -378 -15
0 -26 -90 -286 -130 -379 -23 -51 -44 -99 -47 -105 -4 -10 311 -13 1559 -13
l1564 0 53 238 c29 130 56 240 59 243 4 4 81 -4 172 -18 188 -27 300 -25 427
8 315 83 552 329 629 654 20 84 23 263 5 352 -13 66 -738 2168 -774 2243 -12
25 -57 82 -100 127 l-78 81 29 54 c62 111 130 468 139 723 11 337 -47 595
-185 814 -81 129 -155 208 -322 340 -206 164 -274 225 -345 314 -126 158 -202
327 -335 752 -119 378 -178 518 -283 675 -96 143 -246 269 -377 317 -115 43
-264 52 -440 28z m-565 -788 c1 -118 4 -139 27 -199 75 -191 244 -358 485
-481 97 -49 239 -107 264 -107 5 0 -11 41 -36 90 -25 50 -43 90 -39 90 3 0 32
-20 64 -45 89 -68 165 -159 215 -255 66 -129 85 -219 92 -436 6 -198 9 -184
-63 -295 l-43 -66 14 -106 c8 -58 25 -170 39 -249 14 -79 28 -174 32 -213 4
-38 8 -77 10 -85 1 -8 3 -38 3 -66 l1 -51 113 -33 c190 -55 586 -210 625 -245
11 -9 1 -23 -47 -67 -311 -289 -905 -471 -1396 -428 -264 23 -463 85 -635 199
-60 40 -180 148 -180 162 0 11 161 117 275 180 76 43 237 120 318 153 l39 16
-7 67 c-4 38 -8 79 -11 93 -2 13 -4 94 -5 180 0 86 -4 161 -7 167 -4 5 -25 16
-47 23 -269 86 -510 374 -604 720 -44 162 -56 257 -55 445 0 127 3 153 37 285
43 173 92 312 152 435 l43 90 -5 -110 c-3 -61 0 -157 6 -215 14 -116 40 -245
48 -236 4 3 18 54 33 113 37 143 98 307 178 476 36 75 65 137 66 137 1 0 1
-60 1 -133z"/>
<path d="M31360 18373 c-275 -28 -523 -96 -745 -203 -589 -284 -979 -843
-1081 -1545 -24 -165 -24 -468 0 -630 40 -269 133 -549 253 -758 34 -61 63
-112 63 -113 0 -1 -21 -9 -47 -19 -27 -10 -52 -21 -57 -26 -14 -12 94 -149
209 -265 206 -208 442 -354 730 -453 167 -57 246 -75 289 -63 26 8 52 7 93 -3
151 -35 290 -49 488 -49 209 0 337 13 520 56 577 133 1042 503 1300 1033 94
194 158 394 195 612 l12 72 -69 138 c-78 155 -117 266 -118 333 l0 45 55 17
c30 9 72 19 93 23 45 7 45 4 11 177 -49 255 -161 537 -290 736 -324 500 -826
804 -1450 877 -115 13 -360 18 -454 8z m430 -1164 c349 -56 620 -302 709 -643
l21 -79 -69 -81 c-38 -45 -120 -131 -183 -191 -262 -256 -476 -380 -992 -574
l-189 -70 -53 45 c-203 174 -322 491 -294 786 41 422 315 729 715 803 87 16
249 18 335 4z"/>
<path d="M20100 17076 l0 -64 58 16 c61 17 295 24 362 10 34 -7 35 -7 10 7
-66 39 -304 95 -402 95 -28 0 -28 -1 -28 -64z"/>
<path d="M14489 15296 c-3 -3 -46 -10 -97 -17 l-92 -12 0 -506 c0 -559 1 -569
63 -684 74 -139 219 -251 367 -282 l35 -7 -51 49 c-97 93 -151 198 -173 334
-7 38 -11 276 -11 597 0 509 -1 532 -18 532 -10 0 -21 -2 -23 -4z"/>
<path d="M34517 14603 c-3 -5 -8 -42 -11 -83 l-7 -75 136 -135 c74 -74 135
-141 135 -148 0 -21 -135 -215 -245 -351 -55 -68 -103 -129 -107 -135 -9 -15
-521 -4766 -514 -4773 18 -18 552 -121 761 -147 899 -111 1904 -48 2855 180
342 82 860 245 860 270 0 13 -153 795 -167 852 l-5 22 -1127 0 c-723 0 -1142
4 -1170 11 -151 35 -283 155 -343 315 -23 59 -23 60 -26 828 -2 508 1 794 8
840 14 96 68 203 135 271 65 65 174 121 265 135 40 6 410 10 976 10 l911 0 21
103 c12 56 33 155 46 220 83 396 47 848 -99 1243 -52 140 -153 343 -227 454
l-63 95 -1497 3 c-823 1 -1499 -1 -1501 -5z"/>
<path d="M9840 10819 c0 -19 134 -254 560 -984 1198 -2053 2043 -3623 2780
-5167 l118 -246 -14 -84 c-35 -203 -91 -382 -169 -538 -39 -79 -135 -229 -158
-248 -11 -9 -53 23 -203 154 -1056 926 -1994 1855 -2629 2604 -49 58 -152 175
-230 260 -478 525 -900 1022 -1480 1740 -538 665 -647 792 -692 805 -46 13
-25 -36 91 -210 540 -811 2721 -3169 4601 -4975 72 -69 207 -197 300 -284 94
-87 172 -163 174 -168 8 -22 -208 -202 -315 -263 l-31 -17 -244 102 c-1186
499 -2276 1028 -3064 1487 -104 61 -323 183 -485 271 -535 290 -1078 606
-1815 1055 -824 502 -944 571 -1010 580 l-40 6 35 -30 c54 -47 420 -290 670
-446 1570 -977 4126 -2332 5648 -2993 105 -46 192 -87 192 -90 0 -8 -168 -76
-273 -109 -134 -43 -361 -87 -547 -107 -167 -18 -562 -24 -780 -12 l-125 7 60
-20 c123 -41 509 -150 696 -196 l194 -48 -870 -7 c-478 -3 -1594 -11 -2480
-17 -2922 -21 -4885 -44 -4928 -60 -115 -43 1445 -72 4943 -92 2317 -13 14346
-13 20205 0 10051 24 17785 34 18535 25 426 -5 777 -8 779 -7 21 14 -130 37
-339 52 -944 68 -4222 119 -8873 138 -917 3 -1665 8 -1663 10 2 2 327 62 722
133 396 72 725 132 732 135 11 4 13 43 10 192 -3 161 -7 196 -25 244 -24 65
-82 153 -147 223 -45 47 -46 48 -71 32 -193 -126 -412 -170 -638 -126 l-62 12
-480 -267 c-264 -147 -504 -285 -533 -307 -59 -46 -132 -138 -170 -215 l-26
-53 -319 0 -319 0 5 27 c46 219 25 351 -82 515 l-44 66 -54 -25 c-174 -80
-446 -76 -643 9 -35 15 -39 14 -568 -168 -332 -114 -555 -195 -589 -216 -57
-34 -150 -118 -194 -175 l-24 -32 -6114 -3 -6114 -2 -106 110 c-58 61 -133
147 -166 193 -74 101 -175 260 -175 276 0 6 39 18 93 29 156 29 578 124 872
196 1412 345 2977 866 3762 1252 148 73 148 73 105 76 -58 4 -106 -12 -577
-201 -720 -287 -1039 -401 -1745 -622 -900 -281 -1591 -465 -2318 -615 l-233
-48 -48 97 c-64 127 -139 315 -194 481 -49 151 -123 418 -116 423 27 23 297
222 499 369 691 501 1367 961 3330 2261 678 449 801 535 772 545 -42 14 -1222
-724 -2202 -1377 -876 -584 -1610 -1104 -2187 -1550 l-231 -178 -21 101 c-127
610 -191 1480 -163 2211 5 132 7 242 5 245 -3 3 -56 7 -119 10 l-114 5 0 -65
c0 -36 14 -519 30 -1075 75 -2574 91 -3147 88 -3150 -6 -6 -5939 -27 -5945
-22 -3 3 0 61 7 129 18 182 25 814 11 1025 -87 1351 -532 2598 -1385 3880 -77
116 -142 210 -144 209 -1 -2 32 -102 73 -222 345 -999 552 -1818 620 -2454 19
-181 29 -530 18 -629 l-8 -74 -44 99 c-292 658 -834 1755 -1283 2598 -663
1242 -1440 2576 -1953 3351 -130 195 -185 265 -185 234z"/>
</g>
</svg>
